<svg width="116" height="39" viewBox="0 0 116 39" fill="none" xmlns="http://www.w3.org/2000/svg">
<g id="LOGO" clip-path="url(#clip0_23_3167)">
<path id="Vector" d="M0 14.3822L0 22.7503L35.7943 22.7503V14.3822L0 14.3822Z" fill="currentColor"/>
<path id="Vector_2" d="M102.763 1.44965L94.2952 1.44965V36.8239H102.763V1.44965Z" fill="currentColor"/>
<path id="Vector_3" d="M85.1429 6.67061L80.9092 13.9157L111.916 31.6028L116.15 24.3578L85.1429 6.67061Z" fill="currentColor"/>
<path id="Vector_4" d="M116.15 13.9157L111.916 6.67061L80.9092 24.3577L85.143 31.6028L116.15 13.9157Z" fill="currentColor"/>
<path id="Vector_5" d="M22.3226 1.44971H13.4702V36.824H22.3226V1.44971Z" fill="currentColor"/>
<path id="Vector_6" fill-rule="evenodd" clip-rule="evenodd" d="M58.1843 37.9651C68.5998 37.9651 77.0435 29.6206 77.0435 19.3271C77.0435 9.03354 68.5998 0.688988 58.1843 0.688988C47.7684 0.688988 39.3248 9.03354 39.3248 19.3271C39.3248 29.6206 47.7684 37.9651 58.1843 37.9651ZM58.1851 29.8321C64.0555 29.8321 68.8148 25.1289 68.8148 19.3271C68.8148 13.5253 64.0555 8.82199 58.1851 8.82199C52.3143 8.82199 47.555 13.5253 47.555 19.3271C47.555 25.1289 52.3143 29.8321 58.1851 29.8321Z" fill="currentColor"/>
</g>
<defs>
<clipPath id="clip0_23_3167">
<rect width="115.853" height="37.6523" fill="currentColor" transform="translate(0 0.688988)"/>
</clipPath>
</defs>
</svg>
